<svg width="33" height="55" viewBox="0 0 33 55" fill="none" xmlns="http://www.w3.org/2000/svg">
<g id="file-invoice 1" clip-path="url(#clip0_168_369)">
<path id="Vector" d="M24.75 27.4968H8.25V34.2139H24.75V27.4968ZM32.3984 11.6485L23.9852 1.36286C23.5984 0.890562 23.0742 0.628174 22.5242 0.628174H22V14.0625H33V13.4222C33 12.761 32.7852 12.1208 32.3984 11.6485ZM19.25 14.9021V0.628174H2.0625C0.919531 0.628174 0 1.7512 0 3.1471V51.8464C0 53.2423 0.919531 54.3654 2.0625 54.3654H30.9375C32.0805 54.3654 33 53.2423 33 51.8464V17.421H21.3125C20.1781 17.421 19.25 16.2875 19.25 14.9021ZM5.5 8.18497C5.5 7.72106 5.80766 7.34532 6.1875 7.34532H13.0625C13.4423 7.34532 13.75 7.72106 13.75 8.18497V9.86425C13.75 10.3282 13.4423 10.7039 13.0625 10.7039H6.1875C5.80766 10.7039 5.5 10.3282 5.5 9.86425V8.18497ZM5.5 14.9021C5.5 14.4382 5.80766 14.0625 6.1875 14.0625H13.0625C13.4423 14.0625 13.75 14.4382 13.75 14.9021V16.5814C13.75 17.0453 13.4423 17.421 13.0625 17.421H6.1875C5.80766 17.421 5.5 17.0453 5.5 16.5814V14.9021ZM27.5 46.8086C27.5 47.2725 27.1923 47.6482 26.8125 47.6482H19.9375C19.5577 47.6482 19.25 47.2725 19.25 46.8086V45.1293C19.25 44.6654 19.5577 44.2896 19.9375 44.2896H26.8125C27.1923 44.2896 27.5 44.6654 27.5 45.1293V46.8086ZM27.5 25.8175V35.8932C27.5 36.821 26.8847 37.5725 26.125 37.5725H6.875C6.11531 37.5725 5.5 36.821 5.5 35.8932V25.8175C5.5 24.8897 6.11531 24.1382 6.875 24.1382H26.125C26.8847 24.1382 27.5 24.8897 27.5 25.8175Z" fill="white"/>
</g>
<defs>
<clipPath id="clip0_168_369">
<rect width="33" height="53.7372" fill="white" transform="translate(0 0.628174)"/>
</clipPath>
</defs>
</svg>
